<?xml version="1.0" encoding="UTF-8"?>
<svg width="1200pt" height="1200pt" version="1.1" viewBox="0 0 1200 1200" xmlns="http://www.w3.org/2000/svg">
 <g>
  <path d="m1018.6 435.6c52.969 0 95.941-42.973 95.941-95.941 0-53.016-42.973-95.988-95.941-95.988-53.016 0-95.988 42.973-95.988 95.988 0 52.969 42.973 95.941 95.988 95.941z"/>
  <path d="m1114.5 560.58h-140.61l-42.469-102.16c-1.7891-4.3438-4.2461-8.4102-7.2852-11.988l-2.8438-3.3594-95.004-112.75-83.797-99.422c-8.7344-10.367-21.59-16.344-35.16-16.344l-181.63 0.003906c-25.402 0-45.996 20.578-45.996 46.008 0 25.379 20.594 45.973 45.996 45.973h160.22l50.797 60.301-200.82 189.8c-4.668 3.168-9.0703 6.8047-13.094 11.039-29.711 31.402-28.355 80.988 3.0352 110.69l155.71 147.35-202.09 48.445c-25.031 5.9883-40.465 31.164-34.453 56.195 6 25.031 31.141 40.465 56.184 34.441l285.39-68.375c5.3281-1.2969 10.656-3.5742 15.422-6.8516 21.145-14.496 26.531-43.391 12.047-64.535l-2.8906-4.2227-117.88-171.94 168.5-118.3 38.93 93.672c7.1523 17.172 23.879 28.344 42.492 28.344h171.28c25.402 0 45.984-20.605 45.984-45.996 0.003906-25.395-20.578-46.023-45.98-46.023z"/>
  <path d="m486.94 719.48c-24.227-22.945-38.711-53.387-41.508-86.375l-307.62 263.98c-20.113 17.328-23.473 47.664-7.0195 68.879 16.992 21.949 48.539 25.957 70.477 8.9648l305.64-236.53z"/>
  <path d="m552.72 417.45c0 16.055-12.996 29.062-29.062 29.062h-237.05c-16.066 0-29.074-13.008-29.074-29.062 0-16.078 13.008-29.09 29.074-29.09h237.04c16.078 0 29.074 13.008 29.074 29.09z"/>
  <path d="m443.71 526.45c0 16.055-13.008 29.062-29.074 29.062h-237.04c-16.066 0-29.074-13.008-29.074-29.062 0-16.078 13.008-29.074 29.074-29.074h237.04c16.066-0.015625 29.074 12.992 29.074 29.074z"/>
  <path d="m334.7 635.47c0 16.055-13.008 29.062-29.074 29.062h-237.05c-16.055 0-29.074-13.008-29.074-29.062 0-16.094 13.008-29.102 29.074-29.102h237.04c16.07 0 29.09 13.008 29.09 29.102z"/>
 </g>
</svg>
